<?xml version="1.0" standalone="no"?>
<!DOCTYPE svg PUBLIC "-//W3C//DTD SVG 20010904//EN"
 "http://www.w3.org/TR/2001/REC-SVG-20010904/DTD/svg10.dtd">
<svg version="1.0" xmlns="http://www.w3.org/2000/svg"
 width="16.000000pt" height="16.000000pt" viewBox="0 0 16.000000 16.000000"
 preserveAspectRatio="xMidYMid meet">
<metadata>
Created by potrace 1.11, written by Peter Selinger 2001-2013
</metadata>
<g transform="translate(0.000000,16.000000) scale(0.001658,-0.001658)"
fill="#000000" stroke="none">
<path d="M1897 9394 c-1 -1 -40 -5 -87 -9 -47 -4 -96 -8 -110 -10 -14 -3 -41
-7 -60 -9 -388 -58 -725 -222 -980 -476 -222 -220 -354 -438 -476 -783 -42
-119 -104 -367 -119 -477 -3 -25 -10 -70 -15 -100 -5 -30 -12 -84 -15 -120 -3
-36 -8 -81 -10 -100 -29 -261 -20 -803 20 -1165 3 -27 10 -81 15 -120 5 -38
12 -92 15 -120 11 -87 24 -185 31 -220 3 -11 7 -38 9 -60 3 -22 17 -107 31
-190 14 -82 27 -163 30 -180 2 -16 16 -86 29 -155 14 -69 27 -135 30 -148 2
-13 6 -31 9 -40 3 -9 8 -33 11 -52 3 -19 8 -42 10 -50 2 -8 7 -30 10 -49 3
-19 8 -37 10 -41 2 -4 7 -22 10 -41 3 -19 20 -90 36 -159 17 -69 32 -133 34
-144 3 -10 12 -44 21 -75 9 -31 18 -67 21 -80 12 -66 161 -566 236 -791 85
-254 175 -505 204 -569 8 -18 16 -39 18 -45 1 -6 6 -20 10 -31 4 -11 14 -35
21 -54 8 -18 11 -38 7 -45 -3 -6 -2 -8 2 -3 7 6 80 -150 89 -188 1 -5 12 -30
23 -55 12 -25 23 -52 25 -60 2 -8 5 -17 8 -20 3 -3 16 -30 29 -60 57 -130 238
-493 293 -590 102 -177 285 -433 439 -614 84 -98 317 -326 409 -400 90 -73
239 -173 332 -224 157 -87 387 -167 553 -192 96 -15 292 -20 372 -9 32 4 81
10 108 14 265 34 648 214 919 432 39 32 82 67 96 78 14 11 91 85 171 165 170
169 289 310 414 489 118 171 308 476 632 1016 181 303 390 651 464 774 74 123
141 236 150 251 8 16 23 40 32 53 9 14 25 41 35 59 20 33 165 271 263 430 330
533 573 895 760 1133 76 96 186 222 175 199 -13 -28 318 -150 459 -170 28 -3
59 -8 70 -11 29 -5 263 -5 273 1 4 2 28 7 52 11 80 11 257 75 325 117 263 165
416 336 564 629 63 125 133 298 147 364 1 6 9 39 18 75 8 36 18 88 21 115 3
28 8 66 11 85 7 43 7 241 -1 293 -11 78 -15 103 -20 127 -3 14 -7 36 -10 50
-25 132 -109 338 -192 468 -140 220 -290 350 -442 383 -125 27 -297 -9 -425
-88 -161 -99 -502 -349 -729 -535 l-107 -88 -43 19 c-23 11 -78 36 -122 56
-162 73 -661 320 -1465 724 -1215 611 -1293 649 -1570 769 -488 211 -842 340
-1229 448 -107 30 -204 56 -215 59 -12 2 -95 19 -186 38 -91 20 -185 38 -210
41 -25 3 -54 8 -65 10 -11 2 -45 7 -75 10 -30 4 -68 8 -85 10 -111 15 -536 30
-548 20z m2038 -2077 c11 -3 52 -8 90 -11 39 -4 81 -9 95 -11 79 -12 158 -26
180 -30 14 -3 52 -10 85 -16 309 -56 772 -208 1176 -387 135 -60 419 -201 574
-285 199 -107 545 -315 545 -326 0 -3 -78 -85 -173 -182 -172 -176 -395 -411
-498 -524 -30 -33 -56 -62 -59 -65 -10 -9 -124 -134 -195 -215 -38 -43 -91
-102 -116 -129 -25 -28 -85 -98 -135 -156 -49 -58 -91 -107 -95 -110 -3 -3
-54 -70 -115 -150 -99 -131 -338 -435 -382 -485 -9 -11 -42 -49 -72 -85 -206
-243 -370 -420 -590 -635 -116 -113 -151 -145 -254 -236 -22 -19 -47 -41 -55
-49 -14 -13 -184 -148 -216 -172 -5 -4 -23 -18 -40 -31 -185 -145 -495 -322
-704 -402 -93 -36 -242 -82 -295 -90 -17 -3 -53 -10 -81 -15 -48 -9 -97 -13
-122 -11 -10 1 -183 279 -183 295 0 4 -12 25 -26 47 -38 61 -224 436 -287 579
-81 185 -159 386 -213 550 -26 80 -51 154 -55 165 -18 45 -94 352 -120 480
-51 259 -68 447 -64 715 2 124 6 239 9 255 3 17 10 66 16 110 66 466 310 904
672 1206 168 140 453 276 698 334 102 24 152 34 185 39 22 4 54 9 70 11 17 3
44 7 60 10 17 2 68 7 115 11 47 4 86 8 88 9 5 5 465 -3 487 -8z"/>
</g>
</svg>
